<svg width="161" height="53" viewBox="0 0 161 53" fill="none" xmlns="http://www.w3.org/2000/svg">
<path d="M63.9647 33.75H71.6297V39H57.1047V14.325H63.9647V33.75ZM83.4321 39.245C81.4721 39.245 79.7104 38.8367 78.1471 38.02C76.6071 37.2033 75.3938 36.0367 74.5071 34.52C73.6204 33.0033 73.1771 31.2183 73.1771 29.165C73.1771 27.135 73.6204 25.3617 74.5071 23.845C75.4171 22.3283 76.6421 21.1617 78.1821 20.345C79.7454 19.5283 81.5071 19.12 83.4671 19.12C85.4271 19.12 87.1771 19.5283 88.7171 20.345C90.2804 21.1617 91.5054 22.3283 92.3921 23.845C93.3021 25.3617 93.7571 27.135 93.7571 29.165C93.7571 31.195 93.3021 32.98 92.3921 34.52C91.5054 36.0367 90.2804 37.2033 88.7171 38.02C87.1538 38.8367 85.3921 39.245 83.4321 39.245ZM83.4321 33.295C84.3888 33.295 85.1821 32.945 85.8121 32.245C86.4654 31.5217 86.7921 30.495 86.7921 29.165C86.7921 27.835 86.4654 26.82 85.8121 26.12C85.1821 25.42 84.4004 25.07 83.4671 25.07C82.5338 25.07 81.7521 25.42 81.1221 26.12C80.4921 26.82 80.1771 27.835 80.1771 29.165C80.1771 30.5183 80.4804 31.545 81.0871 32.245C81.6938 32.945 82.4754 33.295 83.4321 33.295ZM95.4281 29.165C95.4281 27.135 95.8481 25.3617 96.6881 23.845C97.5281 22.3283 98.6947 21.1617 100.188 20.345C101.705 19.5283 103.431 19.12 105.368 19.12C107.865 19.12 109.965 19.8083 111.668 21.185C113.371 22.5383 114.468 24.44 114.958 26.89H107.678C107.258 25.6067 106.441 24.965 105.228 24.965C104.365 24.965 103.676 25.3267 103.163 26.05C102.673 26.75 102.428 27.7883 102.428 29.165C102.428 30.5417 102.673 31.5917 103.163 32.315C103.676 33.0383 104.365 33.4 105.228 33.4C106.465 33.4 107.281 32.7583 107.678 31.475H114.958C114.468 33.9017 113.371 35.8033 111.668 37.18C109.965 38.5567 107.865 39.245 105.368 39.245C103.431 39.245 101.705 38.8367 100.188 38.02C98.6947 37.2033 97.5281 36.0367 96.6881 34.52C95.8481 33.0033 95.4281 31.2183 95.4281 29.165ZM137.898 19.365V39H131.003V36.2C130.42 37.0867 129.615 37.81 128.588 38.37C127.561 38.9067 126.383 39.175 125.053 39.175C122.766 39.175 120.958 38.4283 119.628 36.935C118.321 35.4183 117.668 33.365 117.668 30.775V19.365H124.493V29.9C124.493 31.02 124.785 31.9067 125.368 32.56C125.975 33.19 126.768 33.505 127.748 33.505C128.751 33.505 129.545 33.19 130.128 32.56C130.711 31.9067 131.003 31.02 131.003 29.9V19.365H137.898ZM150.167 39.245C148.394 39.245 146.807 38.9533 145.407 38.37C144.03 37.7633 142.934 36.9467 142.117 35.92C141.324 34.87 140.88 33.6917 140.787 32.385H147.437C147.53 33.015 147.822 33.505 148.312 33.855C148.802 34.205 149.409 34.38 150.132 34.38C150.692 34.38 151.135 34.2633 151.462 34.03C151.789 33.7967 151.952 33.4933 151.952 33.12C151.952 32.63 151.684 32.2683 151.147 32.035C150.61 31.8017 149.724 31.545 148.487 31.265C147.087 30.985 145.92 30.67 144.987 30.32C144.054 29.97 143.237 29.3983 142.537 28.605C141.86 27.8117 141.522 26.7383 141.522 25.385C141.522 24.2183 141.837 23.1683 142.467 22.235C143.097 21.2783 144.019 20.52 145.232 19.96C146.469 19.4 147.95 19.12 149.677 19.12C152.244 19.12 154.262 19.75 155.732 21.01C157.202 22.27 158.054 23.9267 158.287 25.98H152.092C151.975 25.35 151.695 24.8717 151.252 24.545C150.832 24.195 150.26 24.02 149.537 24.02C148.977 24.02 148.545 24.125 148.242 24.335C147.962 24.545 147.822 24.8367 147.822 25.21C147.822 25.6767 148.09 26.0383 148.627 26.295C149.164 26.5283 150.027 26.7733 151.217 27.03C152.64 27.3333 153.819 27.6717 154.752 28.045C155.709 28.4183 156.537 29.025 157.237 29.865C157.96 30.6817 158.322 31.8017 158.322 33.225C158.322 34.3683 157.984 35.395 157.307 36.305C156.654 37.215 155.709 37.9383 154.472 38.475C153.259 38.9883 151.824 39.245 150.167 39.245Z" fill="#58A9A5"/>
<path d="M4 28V49H25" stroke="#58A9A5" stroke-width="8" stroke-linecap="round"/>
<path d="M41 28V49H20" stroke="#58A9A5" stroke-width="8" stroke-linecap="round"/>
<path d="M41 28L28.8588 15.4666L17 4" stroke="#58A9A5" stroke-width="8" stroke-linecap="round"/>
<path d="M4 28L16.1412 15.4666L28 4" stroke="#58A9A5" stroke-width="8" stroke-linecap="round"/>
</svg>
